<svg xmlns="http://www.w3.org/2000/svg" width="929" height="929" viewBox="0 0 929 929" version="1.1"><path d="M 436.500 2.628 C 394.133 5.927, 344.921 17.238, 305.500 32.737 C 227.199 63.522, 161.779 112.469, 109.209 179.601 C 70.217 229.392, 39.082 295.795, 25.092 359 C 9.881 427.718, 10.563 499.205, 27.073 566.752 C 36.592 605.695, 51.978 645.540, 70.019 677.972 L 77.854 692.057 38.988 809.256 C 17.611 873.715, 0.270 926.603, 0.453 926.786 C 0.636 926.969, 57.563 912.218, 126.958 894.007 L 253.131 860.896 263.815 866.325 C 312.378 891.004, 367.991 907.501, 423 913.546 C 430.975 914.422, 448.553 915.393, 462.063 915.704 C 522.592 917.094, 581.399 906.654, 639 884.291 C 655.050 878.061, 691.883 859.766, 708 850.021 C 767.863 813.824, 820.678 762.114, 857.652 703.500 C 900.534 635.522, 925.286 556.318, 927.843 478.895 C 929.417 431.222, 925.618 391.763, 915.480 350.500 C 895.388 268.717, 854.102 195.232, 795.057 136.156 C 770.717 111.803, 750.477 95.346, 720.919 75.875 C 663.675 38.167, 599.448 14.590, 527.500 4.874 C 515.346 3.233, 505.764 2.791, 477 2.544 C 457.475 2.376, 439.250 2.414, 436.500 2.628 M 451 89.600 C 351.690 96.479, 267.182 136.260, 199.754 207.872 C 146.655 264.264, 112.251 339.386, 103.519 418 C 101.568 435.565, 101.548 473.957, 103.479 494.117 C 113.740 601.225, 169.110 697.104, 257.027 760 C 294.211 786.601, 339.409 807.235, 384 817.964 C 441.456 831.790, 504.547 831.448, 561.315 817.003 C 615.498 803.217, 663.955 778.579, 707.675 742.588 C 722.588 730.311, 746.664 705.786, 759.360 689.940 C 822.518 611.111, 850.314 512.177, 837.445 412.010 C 826.333 325.518, 786.048 247.133, 722.191 187.752 C 664.519 134.122, 592.304 100.978, 512.500 91.510 C 499.844 90.009, 462.048 88.835, 451 89.600 M 453.425 163.046 C 401.176 166.025, 350.323 183.136, 306.453 212.497 C 232.001 262.327, 184.306 342.322, 175.930 431.417 C 174.223 449.573, 175.202 482.491, 178.016 501.500 C 190.712 587.288, 239.671 662.711, 313.052 709.526 C 326.892 718.356, 354.352 731.744, 370.500 737.536 C 387.825 743.750, 410.054 749.296, 429 752.133 C 442.306 754.124, 448.322 754.451, 471.500 754.437 C 500.337 754.420, 513.160 753.087, 538 747.525 C 585.845 736.811, 636.039 710.230, 671.870 676.631 C 689.837 659.783, 704.384 642.945, 716.386 625.105 C 758.749 562.131, 775.345 488.348, 763.961 413.587 C 752.966 341.378, 713.532 272.898, 657 227.841 C 638.517 213.110, 625.439 204.748, 604 193.951 C 566.632 175.132, 530.352 165.503, 487.416 163.010 C 478.112 162.470, 469.600 162.090, 468.500 162.165 C 467.400 162.239, 460.616 162.636, 453.425 163.046 M 369 452.485 L 369 594.104 436.250 593.737 C 501.719 593.381, 503.765 593.312, 513.500 591.116 C 555.450 581.657, 577.654 556.792, 579.692 516.996 C 581.371 484.196, 565.940 459.465, 538.168 450.448 L 532.837 448.716 538.800 445.530 C 564.312 431.899, 575.881 409.294, 572.844 379.013 C 569.240 343.077, 546.851 322.040, 503 313.385 C 495.754 311.955, 485.242 311.646, 431.750 311.287 L 369 310.866 369 452.485 M 427 394 L 427 430 451.750 429.965 C 484.929 429.918, 496.055 427.770, 505.799 419.530 C 518.488 408.799, 518.817 378.949, 506.368 368.018 C 496.659 359.494, 489.080 358.040, 454.250 358.017 L 427 358 427 394 M 427 509.500 L 427 548 456.451 548 C 474.555 548, 487.943 547.565, 491.201 546.870 C 511.219 542.600, 521.980 529.708, 521.977 510 C 521.974 489.461, 512.032 475.903, 494.201 472.123 C 490.933 471.431, 477.036 471, 457.951 471 L 427 471 427 509.500" stroke="none" fill="#08e474" fill-rule="evenodd"/></svg>